<svg width="813.7724609375px" height="133.98505859375px" xmlns="http://www.w3.org/2000/svg" viewBox="-156.88623046875 8.007470703124994 813.7724609375 133.98505859375" style="background: rgba(0, 0, 0, 0);" preserveAspectRatio="xMidYMid"><defs><linearGradient id="editing-gradow-gradient" x1="0" x2="1" y1="0.5" y2="0.5" gradientUnits="objectBoundingBox"><stop offset="0" stop-color="#1e87f0"></stop><stop offset="1" stop-color="#1e87f0"></stop></linearGradient><filter id="editing-gradow-filter" x="-100%" y="-100%" width="300%" height="300%"><feFlood flood-color="#ebeaff" result="flood"></feFlood><feComposite operator="in" in2="SourceAlpha" in="flood" result="shadow"></feComposite><feOffset dx="0.9" dy="-1.6" in="SourceGraphic" result="offset-1"></feOffset><feOffset dx="-0.9" dy="1.6" in="shadow" result="offset-2"></feOffset><feMerge><feMergeNode in="offset-2"></feMergeNode><feMergeNode in="offset-1"></feMergeNode></feMerge></filter></defs><g filter="url(#editing-gradow-filter)"><g transform="translate(-43.18499755859375, 104.74437522888184)"><path d="M17.34 0.77L17.34 0.77Q12.99 0.77 9.25-0.90L9.25-0.90L9.25-0.90Q5.50-2.56 2.75-5.50L2.75-5.50L5.63-8.77L5.63-8.77Q7.94-6.27 11.01-4.83L11.01-4.83L11.01-4.83Q14.08-3.39 17.41-3.39L17.41-3.39L17.41-3.39Q21.70-3.39 24.16-5.38L24.16-5.38L24.16-5.38Q26.62-7.36 26.62-10.69L26.62-10.69L26.62-10.69Q26.62-12.80 25.73-14.21L25.73-14.21L25.73-14.21Q24.83-15.62 23.42-16.45L23.42-16.45L23.42-16.45Q22.02-17.28 19.46-18.43L19.46-18.43L13.38-21.12L13.38-21.12Q9.66-22.72 7.26-25.22L7.26-25.22L7.26-25.22Q4.86-27.71 4.86-31.87L4.86-31.87L4.86-31.87Q4.86-35.01 6.53-37.50L6.53-37.50L6.53-37.50Q8.19-40 11.17-41.41L11.17-41.41L11.17-41.41Q14.14-42.82 17.79-42.82L17.79-42.82L17.79-42.82Q21.44-42.82 24.61-41.41L24.61-41.41L24.61-41.41Q27.78-40 30.02-37.63L30.02-37.63L27.46-34.62L27.46-34.62Q23.30-38.66 17.79-38.66L17.79-38.66L17.79-38.66Q14.08-38.66 11.84-36.86L11.84-36.86L11.84-36.86Q9.60-35.07 9.60-32.13L9.60-32.13L9.60-32.13Q9.60-30.14 10.62-28.80L10.62-28.80L10.62-28.80Q11.65-27.46 12.99-26.69L12.99-26.69L12.99-26.69Q14.34-25.92 16.64-24.90L16.64-24.90L22.72-22.21L22.72-22.21Q26.88-20.48 29.15-17.92L29.15-17.92L29.15-17.92Q31.42-15.36 31.42-11.01L31.42-11.01L31.42-11.01Q31.42-7.68 29.70-4.99L29.70-4.99L29.70-4.99Q27.97-2.30 24.77-0.77L24.77-0.77L24.77-0.77Q21.57 0.77 17.34 0.77L17.34 0.77ZM39.42 13.57L39.42 13.57Q37.50 13.57 35.90 12.93L35.90 12.93L36.80 9.15L36.80 9.15Q38.08 9.66 39.23 9.66L39.23 9.66L39.23 9.66Q41.79 9.66 43.58 7.74L43.58 7.74L43.58 7.74Q45.38 5.82 46.46 2.56L46.46 2.56L47.23 0.19L34.69-31.04L39.49-31.04L46.14-13.25L49.22-4.54L49.47-4.54L49.47-4.54Q50.37-7.23 51.33-10.43L51.33-10.43L52.16-13.25L57.98-31.04L62.53-31.04L50.75 2.88L50.75 2.88Q48.96 7.87 46.30 10.72L46.30 10.72L46.30 10.72Q43.65 13.57 39.42 13.57L39.42 13.57ZM68.74 0L68.74-31.04L72.58-31.04L72.96-25.34L73.15-25.34L73.15-25.34Q74.75-28.35 77.06-30.08L77.06-30.08L77.06-30.08Q79.36-31.81 81.98-31.81L81.98-31.81L81.98-31.81Q83.84-31.81 85.18-31.17L85.18-31.17L84.29-27.07L84.29-27.07Q82.62-27.58 81.34-27.58L81.34-27.58L81.34-27.58Q79.17-27.58 77.02-25.79L77.02-25.79L77.02-25.79Q74.88-24 73.34-20.22L73.34-20.22L73.34 0L68.74 0ZM90.50 0L90.50-31.04L95.10-31.04L95.10 0L90.50 0ZM92.86-37.70L92.86-37.70Q91.46-37.70 90.56-38.59L90.56-38.59L90.56-38.59Q89.66-39.49 89.66-40.96L89.66-40.96L89.66-40.96Q89.66-42.37 90.56-43.23L90.56-43.23L90.56-43.23Q91.46-44.10 92.86-44.10L92.86-44.10L92.86-44.10Q94.27-44.10 95.17-43.23L95.17-43.23L95.17-43.23Q96.06-42.37 96.06-40.96L96.06-40.96L96.06-40.96Q96.06-39.49 95.17-38.59L95.17-38.59L95.17-38.59Q94.27-37.70 92.86-37.70L92.86-37.70ZM113.02 0.77L113.02 0.77Q109.06 0.77 106.50-1.54L106.50-1.54L106.50-1.54Q103.94-3.84 103.94-8L103.94-8L103.94-8Q103.94-13.06 108.54-15.78L108.54-15.78L108.54-15.78Q113.15-18.50 123.26-19.58L123.26-19.58L123.26-19.58Q123.26-23.23 121.76-25.57L121.76-25.57L121.76-25.57Q120.26-27.90 116.61-27.90L116.61-27.90L116.61-27.90Q112.19-27.90 107.20-24.51L107.20-24.51L105.34-27.71L105.34-27.71Q111.49-31.81 117.38-31.81L117.38-31.81L117.38-31.81Q122.75-31.81 125.31-28.45L125.31-28.45L125.31-28.45Q127.87-25.09 127.87-19.20L127.87-19.20L127.87 0L124.03 0L123.65-3.78L123.46-3.78L123.46-3.78Q117.95 0.77 113.02 0.77L113.02 0.77ZM114.24-3.01L114.24-3.01Q116.48-3.01 118.62-4.06L118.62-4.06L118.62-4.06Q120.77-5.12 123.26-7.36L123.26-7.36L123.26-16.45L123.26-16.45Q115.26-15.49 111.90-13.50L111.90-13.50L111.90-13.50Q108.54-11.52 108.54-8.26L108.54-8.26L108.54-8.26Q108.54-5.63 110.14-4.32L110.14-4.32L110.14-4.32Q111.74-3.01 114.24-3.01L114.24-3.01ZM138.05 0L138.05-31.04L141.89-31.04L142.27-26.43L142.46-26.43L142.46-26.43Q145.02-28.99 147.49-30.40L147.49-30.40L147.49-30.40Q149.95-31.81 152.90-31.81L152.90-31.81L152.90-31.81Q157.76-31.81 160.06-28.77L160.06-28.77L160.06-28.77Q162.37-25.73 162.37-19.71L162.37-19.71L162.37 0L157.70 0L157.70-19.14L157.70-19.14Q157.70-23.62 156.26-25.66L156.26-25.66L156.26-25.66Q154.82-27.71 151.55-27.71L151.55-27.71L151.55-27.71Q149.25-27.71 147.26-26.53L147.26-26.53L147.26-26.53Q145.28-25.34 142.66-22.72L142.66-22.72L142.66 0L138.05 0ZM186.05 0L186.05-42.05L196.35-42.05L196.35-42.05Q205.95-42.05 210.98-36.61L210.98-36.61L210.98-36.61Q216.00-31.17 216.00-21.18L216.00-21.18L216.00-21.18Q216.00-11.20 210.98-5.60L210.98-5.60L210.98-5.60Q205.95 0 196.54 0L196.54 0L186.05 0ZM190.78-3.90L195.97-3.90L195.97-3.90Q203.52-3.90 207.33-8.42L207.33-8.42L207.33-8.42Q211.14-12.93 211.14-21.18L211.14-21.18L211.14-21.18Q211.14-29.31 207.33-33.73L207.33-33.73L207.33-33.73Q203.52-38.14 195.97-38.14L195.97-38.14L190.78-38.14L190.78-3.90ZM248.51-17.28L248.51-17.28Q248.51-15.62 248.32-14.46L248.32-14.46L226.88-14.46L226.88-14.46Q227.20-9.02 230.24-6.02L230.24-6.02L230.24-6.02Q233.28-3.01 237.70-3.01L237.70-3.01L237.70-3.01Q241.79-3.01 245.57-5.50L245.57-5.50L247.30-2.43L247.30-2.43Q244.99-0.96 242.56-0.10L242.56-0.10L242.56-0.10Q240.13 0.77 237.12 0.77L237.12 0.77L237.12 0.77Q233.02 0.77 229.66-1.18L229.66-1.18L229.66-1.18Q226.30-3.14 224.35-6.85L224.35-6.85L224.35-6.85Q222.40-10.56 222.40-15.49L222.40-15.49L222.40-15.49Q222.40-20.35 224.35-24.06L224.35-24.06L224.35-24.06Q226.30-27.78 229.50-29.79L229.50-29.79L229.50-29.79Q232.70-31.81 236.29-31.81L236.29-31.81L236.29-31.81Q242.05-31.81 245.28-27.94L245.28-27.94L245.28-27.94Q248.51-24.06 248.51-17.28L248.51-17.28ZM227.01-17.86L244.35-17.86L244.35-17.86Q244.35-22.78 242.24-25.41L242.24-25.41L242.24-25.41Q240.13-28.03 236.35-28.03L236.35-28.03L236.35-28.03Q232.90-28.03 230.21-25.41L230.21-25.41L230.21-25.41Q227.52-22.78 227.01-17.86L227.01-17.86ZM262.98 0L251.65-31.04L256.45-31.04L262.59-12.93L265.54-3.84L265.79-3.84L268.74-12.93L274.88-31.04L279.49-31.04L268.35 0L262.98 0ZM309.38-17.28L309.38-17.28Q309.38-15.62 309.18-14.46L309.18-14.46L287.74-14.46L287.74-14.46Q288.06-9.02 291.10-6.02L291.10-6.02L291.10-6.02Q294.14-3.01 298.56-3.01L298.56-3.01L298.56-3.01Q302.66-3.01 306.43-5.50L306.43-5.50L308.16-2.43L308.16-2.43Q305.86-0.96 303.42-0.10L303.42-0.10L303.42-0.10Q300.99 0.77 297.98 0.77L297.98 0.77L297.98 0.77Q293.89 0.77 290.53-1.18L290.53-1.18L290.53-1.18Q287.17-3.14 285.22-6.85L285.22-6.85L285.22-6.85Q283.26-10.56 283.26-15.49L283.26-15.49L283.26-15.49Q283.26-20.35 285.22-24.06L285.22-24.06L285.22-24.06Q287.17-27.78 290.37-29.79L290.37-29.79L290.37-29.79Q293.57-31.81 297.15-31.81L297.15-31.81L297.15-31.81Q302.91-31.81 306.14-27.94L306.14-27.94L306.14-27.94Q309.38-24.06 309.38-17.28L309.38-17.28ZM287.87-17.86L305.22-17.86L305.22-17.86Q305.22-22.78 303.10-25.41L303.10-25.41L303.10-25.41Q300.99-28.03 297.22-28.03L297.22-28.03L297.22-28.03Q293.76-28.03 291.07-25.41L291.07-25.41L291.07-25.41Q288.38-22.78 287.87-17.86L287.87-17.86ZM322.24 0.77L322.24 0.77Q319.62 0.77 318.40-0.86L318.40-0.86L318.40-0.86Q317.18-2.50 317.18-5.70L317.18-5.70L317.18-45.70L321.79-45.70L321.79-5.31L321.79-5.31Q321.79-4.22 322.21-3.68L322.21-3.68L322.21-3.68Q322.62-3.14 323.26-3.14L323.26-3.14L323.26-3.14Q323.78-3.14 324.42-3.26L324.42-3.26L325.06 0.32L325.06 0.32Q323.84 0.77 322.24 0.77L322.24 0.77ZM345.02 0.77L345.02 0.77Q341.18 0.77 337.92-1.18L337.92-1.18L337.92-1.18Q334.66-3.14 332.70-6.82L332.70-6.82L332.70-6.82Q330.75-10.50 330.75-15.49L330.75-15.49L330.75-15.49Q330.75-20.48 332.70-24.19L332.70-24.19L332.70-24.19Q334.66-27.90 337.92-29.86L337.92-29.86L337.92-29.86Q341.18-31.81 345.02-31.81L345.02-31.81L345.02-31.81Q348.86-31.81 352.13-29.86L352.13-29.86L352.13-29.86Q355.39-27.90 357.34-24.19L357.34-24.19L357.34-24.19Q359.30-20.48 359.30-15.49L359.30-15.49L359.30-15.49Q359.30-10.50 357.34-6.82L357.34-6.82L357.34-6.82Q355.39-3.14 352.13-1.18L352.13-1.18L352.13-1.18Q348.86 0.77 345.02 0.77L345.02 0.77ZM345.02-3.14L345.02-3.14Q347.78-3.14 349.92-4.67L349.92-4.67L349.92-4.67Q352.06-6.21 353.28-9.02L353.28-9.02L353.28-9.02Q354.50-11.84 354.50-15.49L354.50-15.49L354.50-15.49Q354.50-19.14 353.28-21.95L353.28-21.95L353.28-21.95Q352.06-24.77 349.92-26.34L349.92-26.34L349.92-26.34Q347.78-27.90 345.02-27.90L345.02-27.90L345.02-27.90Q342.27-27.90 340.13-26.34L340.13-26.34L340.13-26.34Q337.98-24.77 336.80-21.95L336.80-21.95L336.80-21.95Q335.62-19.14 335.62-15.49L335.62-15.49L335.62-15.49Q335.62-9.92 338.24-6.53L338.24-6.53L338.24-6.53Q340.86-3.14 345.02-3.14L345.02-3.14ZM367.74 13.31L367.74-31.04L371.58-31.04L371.97-27.33L372.16-27.33L372.16-27.33Q377.60-31.81 382.21-31.81L382.21-31.81L382.21-31.81Q388.16-31.81 391.33-27.55L391.33-27.55L391.33-27.55Q394.50-23.30 394.50-16L394.50-16L394.50-16Q394.50-10.88 392.64-7.07L392.64-7.07L392.64-7.07Q390.78-3.26 387.71-1.25L387.71-1.25L387.71-1.25Q384.64 0.77 381.06 0.77L381.06 0.77L381.06 0.77Q376.90 0.77 372.22-2.88L372.22-2.88L372.35 2.62L372.35 13.31L367.74 13.31ZM380.29-3.20L380.29-3.20Q382.98-3.20 385.12-4.77L385.12-4.77L385.12-4.77Q387.26-6.34 388.48-9.22L388.48-9.22L388.48-9.22Q389.70-12.10 389.70-15.94L389.70-15.94L389.70-15.94Q389.70-21.50 387.62-24.67L387.62-24.67L387.62-24.67Q385.54-27.84 381.12-27.84L381.12-27.84L381.12-27.84Q377.22-27.84 372.35-23.36L372.35-23.36L372.35-6.59L372.35-6.59Q374.46-4.80 376.51-4L376.51-4L376.51-4Q378.56-3.20 380.29-3.20L380.29-3.20ZM426.75-17.28L426.75-17.28Q426.75-15.62 426.56-14.46L426.56-14.46L405.12-14.46L405.12-14.46Q405.44-9.02 408.48-6.02L408.48-6.02L408.48-6.02Q411.52-3.01 415.94-3.01L415.94-3.01L415.94-3.01Q420.03-3.01 423.81-5.50L423.81-5.50L425.54-2.43L425.54-2.43Q423.23-0.96 420.80-0.10L420.80-0.10L420.80-0.10Q418.37 0.77 415.36 0.77L415.36 0.77L415.36 0.77Q411.26 0.77 407.90-1.18L407.90-1.18L407.90-1.18Q404.54-3.14 402.59-6.85L402.59-6.85L402.59-6.85Q400.64-10.56 400.64-15.49L400.64-15.49L400.64-15.49Q400.64-20.35 402.59-24.06L402.59-24.06L402.59-24.06Q404.54-27.78 407.74-29.79L407.74-29.79L407.74-29.79Q410.94-31.81 414.53-31.81L414.53-31.81L414.53-31.81Q420.29-31.81 423.52-27.94L423.52-27.94L423.52-27.94Q426.75-24.06 426.75-17.28L426.75-17.28ZM405.25-17.86L422.59-17.86L422.59-17.86Q422.59-22.78 420.48-25.41L420.48-25.41L420.48-25.41Q418.37-28.03 414.59-28.03L414.59-28.03L414.59-28.03Q411.14-28.03 408.45-25.41L408.45-25.41L408.45-25.41Q405.76-22.78 405.25-17.86L405.25-17.86ZM434.56 0L434.56-31.04L438.40-31.04L438.78-25.34L438.98-25.34L438.98-25.34Q440.58-28.35 442.88-30.08L442.88-30.08L442.88-30.08Q445.18-31.81 447.81-31.81L447.81-31.81L447.81-31.81Q449.66-31.81 451.01-31.17L451.01-31.17L450.11-27.07L450.11-27.07Q448.45-27.58 447.17-27.58L447.17-27.58L447.17-27.58Q444.99-27.58 442.85-25.79L442.85-25.79L442.85-25.79Q440.70-24 439.17-20.22L439.17-20.22L439.17 0L434.56 0ZM464.26 0.77L464.26 0.77Q461.06 0.77 458.05-0.42L458.05-0.42L458.05-0.42Q455.04-1.60 452.74-3.52L452.74-3.52L455.10-6.66L455.10-6.66Q457.41-4.80 459.58-3.84L459.58-3.84L459.58-3.84Q461.76-2.88 464.45-2.88L464.45-2.88L464.45-2.88Q467.52-2.88 469.18-4.35L469.18-4.35L469.18-4.35Q470.85-5.82 470.85-8.06L470.85-8.06L470.85-8.06Q470.85-10.30 468.96-11.65L468.96-11.65L468.96-11.65Q467.07-12.99 463.62-14.21L463.62-14.21L463.62-14.21Q459.20-15.81 456.70-17.70L456.70-17.70L456.70-17.70Q454.21-19.58 454.21-23.10L454.21-23.10L454.21-23.10Q454.21-26.88 457.06-29.34L457.06-29.34L457.06-29.34Q459.90-31.81 464.77-31.81L464.77-31.81L464.77-31.81Q467.39-31.81 469.82-30.85L469.82-30.85L469.82-30.85Q472.26-29.89 474.18-28.35L474.18-28.35L471.94-25.34L471.94-25.34Q470.08-26.69 468.42-27.39L468.42-27.39L468.42-27.39Q466.75-28.10 464.77-28.10L464.77-28.10L464.77-28.10Q461.82-28.10 460.29-26.72L460.29-26.72L460.29-26.72Q458.75-25.34 458.75-23.36L458.75-23.36L458.75-23.36Q458.75-21.95 459.68-20.93L459.68-20.93L459.68-20.93Q460.61-19.90 461.95-19.30L461.95-19.30L461.95-19.30Q463.30-18.69 465.73-17.73L465.73-17.73L465.73-17.73Q468.99-16.51 470.85-15.55L470.85-15.55L470.85-15.55Q472.70-14.59 474.05-12.83L474.05-12.83L474.05-12.83Q475.39-11.07 475.39-8.32L475.39-8.32L475.39-8.32Q475.39-5.82 474.08-3.74L474.08-3.74L474.08-3.74Q472.77-1.66 470.24-0.45L470.24-0.45L470.24-0.45Q467.71 0.77 464.26 0.77L464.26 0.77ZM496.19 0L496.19-42.05L500.93-42.05L500.93-4.03L519.49-4.03L519.49 0L496.19 0ZM526.53 0L526.53-31.04L531.14-31.04L531.14 0L526.53 0ZM528.90-37.70L528.90-37.70Q527.49-37.70 526.59-38.59L526.59-38.59L526.59-38.59Q525.70-39.49 525.70-40.96L525.70-40.96L525.70-40.96Q525.70-42.37 526.59-43.23L526.59-43.23L526.59-43.23Q527.49-44.10 528.90-44.10L528.90-44.10L528.90-44.10Q530.30-44.10 531.20-43.23L531.20-43.23L531.20-43.23Q532.10-42.37 532.10-40.96L532.10-40.96L532.10-40.96Q532.10-39.49 531.20-38.59L531.20-38.59L531.20-38.59Q530.30-37.70 528.90-37.70L528.90-37.70ZM549.95 0.77L549.95 0.77Q546.75 0.77 543.74-0.42L543.74-0.42L543.74-0.42Q540.74-1.60 538.43-3.52L538.43-3.52L540.80-6.66L540.80-6.66Q543.10-4.80 545.28-3.84L545.28-3.84L545.28-3.84Q547.46-2.88 550.14-2.88L550.14-2.88L550.14-2.88Q553.22-2.88 554.88-4.35L554.88-4.35L554.88-4.35Q556.54-5.82 556.54-8.06L556.54-8.06L556.54-8.06Q556.54-10.30 554.66-11.65L554.66-11.65L554.66-11.65Q552.77-12.99 549.31-14.21L549.31-14.21L549.31-14.21Q544.90-15.81 542.40-17.70L542.40-17.70L542.40-17.70Q539.90-19.58 539.90-23.10L539.90-23.10L539.90-23.10Q539.90-26.88 542.75-29.34L542.75-29.34L542.75-29.34Q545.60-31.81 550.46-31.81L550.46-31.81L550.46-31.81Q553.09-31.81 555.52-30.85L555.52-30.85L555.52-30.85Q557.95-29.89 559.87-28.35L559.87-28.35L557.63-25.34L557.63-25.34Q555.78-26.69 554.11-27.39L554.11-27.39L554.11-27.39Q552.45-28.10 550.46-28.10L550.46-28.10L550.46-28.10Q547.52-28.10 545.98-26.72L545.98-26.72L545.98-26.72Q544.45-25.34 544.45-23.36L544.45-23.36L544.45-23.36Q544.45-21.95 545.38-20.93L545.38-20.93L545.38-20.93Q546.30-19.90 547.65-19.30L547.65-19.30L547.65-19.30Q548.99-18.69 551.42-17.73L551.42-17.73L551.42-17.73Q554.69-16.51 556.54-15.55L556.54-15.55L556.54-15.55Q558.40-14.59 559.74-12.83L559.74-12.83L559.74-12.83Q561.09-11.07 561.09-8.32L561.09-8.32L561.09-8.32Q561.09-5.82 559.78-3.74L559.78-3.74L559.78-3.74Q558.46-1.66 555.94-0.45L555.94-0.45L555.94-0.45Q553.41 0.77 549.95 0.77L549.95 0.77ZM578.05 0.77L578.05 0.77Q573.44 0.77 571.46-1.86L571.46-1.86L571.46-1.86Q569.47-4.48 569.47-9.34L569.47-9.34L569.47-27.20L564.80-27.20L564.80-30.72L569.66-31.04L570.24-39.81L574.14-39.81L574.14-31.04L582.66-31.04L582.66-27.20L574.14-27.20L574.14-9.22L574.14-9.22Q574.14-6.14 575.26-4.61L575.26-4.61L575.26-4.61Q576.38-3.07 579.07-3.07L579.07-3.07L579.07-3.07Q580.42-3.07 582.66-3.90L582.66-3.90L583.62-0.38L583.62-0.38Q580.16 0.77 578.05 0.77L578.05 0.77Z" fill="url(#editing-gradow-gradient)"></path></g></g><style>text {
  font-size: 64px;
  font-family: Arial Black;
  dominant-baseline: central;
  text-anchor: middle;
}</style></svg>