<svg width="432.4625px" height="123.19003906249999px" xmlns="http://www.w3.org/2000/svg" viewBox="33.76875000000001 13.404980468750004 432.4625 123.19003906249999" style="background: rgba(0, 0, 0, 0);" preserveAspectRatio="xMidYMid"><defs><linearGradient id="editing-gradow-gradient" x1="0.024471741852423234" x2="0.9755282581475768" y1="0.3454915028125263" y2="0.6545084971874737" gradientUnits="objectBoundingBox"><stop offset="0" stop-color="#1e87f0"></stop><stop offset="1" stop-color="#1e87f0"></stop></linearGradient><filter id="editing-gradow-filter" x="-100%" y="-100%" width="300%" height="300%"><feFlood flood-color="#e1e1eb" result="flood"></feFlood><feComposite operator="in" in2="SourceAlpha" in="flood" result="shadow"></feComposite><feOffset dx="-0.4" dy="1" in="SourceGraphic" result="offset-1"></feOffset><feOffset dx="0.4" dy="-1" in="shadow" result="offset-2"></feOffset><feMerge><feMergeNode in="offset-2"></feMergeNode><feMergeNode in="offset-1"></feMergeNode></feMerge></filter></defs><g filter="url(#editing-gradow-filter)"><g transform="translate(97.02437734603882, 98.36750030517578)"><path d="M30.08 0L6.40 0L6.40-44.80L30.08-44.80L30.08-44.80Q31.74-44.80 33.15-43.52L33.15-43.52L39.30-38.40L39.30-38.40Q40.83-37.12 40.83-35.84L40.83-35.84L40.83-8.96L40.83-8.96Q40.83-7.68 39.30-6.40L39.30-6.40L33.15-1.28L33.15-1.28Q31.74 0 30.08 0L30.08 0ZM35.46-10.88L35.46-10.88L35.46-33.92L35.46-33.92Q35.46-35.20 33.92-36.48L33.92-36.48L30.85-39.04L30.85-39.04Q29.44-40.32 27.78-40.32L27.78-40.32L11.78-40.32L11.78-4.48L27.78-4.48L27.78-4.48Q29.44-4.48 30.85-5.76L30.85-5.76L33.92-8.32L33.92-8.32Q35.46-9.60 35.46-10.88ZM73.54-5.76L73.54-5.76L77.38-2.56L75.84-1.28L75.84-1.28Q74.69-0.32 74.27-0.16L74.27-0.16L74.27-0.16Q73.86 0 72.70 0L72.70 0L55.62 0L55.62 0Q54.08 0 52.54-1.28L52.54-1.28L51.01-2.56L51.01-2.56Q49.47-3.84 49.47-5.76L49.47-5.76L49.47-26.24L49.47-26.24Q49.47-28.16 51.01-29.44L51.01-29.44L52.54-30.72L52.54-30.72Q54.08-32 55.62-32L55.62-32L70.53-32L70.53-32Q71.81-32 73.60-30.72L73.60-30.72L75.20-29.44L75.20-29.44Q76.74-28.29 76.74-26.24L76.74-26.24L76.74-13.12L54.85-13.12L54.85-7.10L54.85-7.10Q54.85-6.14 54.94-5.86L54.94-5.86L54.94-5.86Q55.04-5.57 55.62-5.12L55.62-5.12L55.62-5.12Q56.19-4.67 56.51-4.58L56.51-4.58L56.51-4.58Q56.83-4.48 57.98-4.48L57.98-4.48L70.40-4.48L70.40-4.48Q71.55-4.48 71.97-4.64L71.97-4.64L71.97-4.64Q72.38-4.80 73.54-5.76ZM54.85-17.28L71.36-17.28L71.36-24.90L71.36-24.90Q71.36-25.86 71.26-26.14L71.26-26.14L71.26-26.14Q71.17-26.43 70.59-26.88L70.59-26.88L70.59-26.88Q70.02-27.33 69.70-27.42L69.70-27.42L69.70-27.42Q69.38-27.52 68.22-27.52L68.22-27.52L57.98-27.52L57.98-27.52Q56.83-27.52 56.51-27.42L56.51-27.42L56.51-27.42Q56.19-27.33 55.62-26.88L55.62-26.88L55.62-26.88Q55.04-26.43 54.94-26.14L54.94-26.14L54.94-26.14Q54.85-25.86 54.85-24.90L54.85-24.90L54.85-17.28ZM96.19-5.89L96.19-5.89L104.64-32L109.95-32L98.82 0L92.67 0L81.54-32L86.85-32L95.30-5.89L95.30-5.89Q95.62-4.93 95.62-4.35L95.62-4.35L95.87-4.35L95.87-4.35Q95.87-4.93 96.19-5.89ZM166.21-39.04L166.21-36.48L160.83-36.48L160.83-37.70L160.83-37.70Q160.83-38.66 160.74-38.94L160.74-38.94L160.74-38.94Q160.64-39.23 160.06-39.68L160.06-39.68L160.06-39.68Q159.49-40.13 159.17-40.22L159.17-40.22L159.17-40.22Q158.85-40.32 157.70-40.32L157.70-40.32L141.82-40.32L141.82-40.32Q140.67-40.32 140.35-40.22L140.35-40.22L140.35-40.22Q140.03-40.13 139.46-39.68L139.46-39.68L139.46-39.68Q138.88-39.23 138.78-38.94L138.78-38.94L138.78-38.94Q138.69-38.66 138.69-37.70L138.69-37.70L138.69-7.10L138.69-7.10Q138.69-6.14 138.78-5.86L138.78-5.86L138.78-5.86Q138.88-5.57 139.46-5.12L139.46-5.12L139.46-5.12Q140.03-4.67 140.35-4.58L140.35-4.58L140.35-4.58Q140.67-4.48 141.82-4.48L141.82-4.48L157.70-4.48L157.70-4.48Q158.85-4.48 159.17-4.58L159.17-4.58L159.17-4.58Q159.49-4.67 160.06-5.12L160.06-5.12L160.06-5.12Q160.64-5.57 160.74-5.86L160.74-5.86L160.74-5.86Q160.83-6.14 160.83-7.10L160.83-7.10L160.83-8.32L166.21-8.32L166.21-5.76L166.21-5.76Q166.21-3.84 164.67-2.56L164.67-2.56L163.14-1.28L163.14-1.28Q161.60 0 160.06 0L160.06 0L139.46 0L139.46 0Q137.92 0 136.38-1.28L136.38-1.28L134.85-2.56L134.85-2.56Q133.31-3.84 133.31-5.76L133.31-5.76L133.31-39.04L133.31-39.04Q133.31-40.96 134.85-42.24L134.85-42.24L136.38-43.52L136.38-43.52Q137.92-44.80 139.46-44.80L139.46-44.80L160.06-44.80L160.06-44.80Q161.60-44.80 163.14-43.52L163.14-43.52L164.67-42.24L164.67-42.24Q166.21-40.96 166.21-39.04L166.21-39.04ZM195.71-2.56L195.71-2.56L195.46-2.56L195.46-2.56Q195.46-1.79 194.05-0.96L194.05-0.96L194.05-0.96Q192.90-0.26 192.48-0.13L192.48-0.13L192.48-0.13Q192.06 0 190.91 0L190.91 0L179.97 0L179.97 0Q178.43 0 176.90-1.28L176.90-1.28L175.36-2.56L175.36-2.56Q173.82-3.84 173.82-5.76L173.82-5.76L173.82-13.44L173.82-13.44Q173.82-15.36 175.36-16.64L175.36-16.64L176.90-17.92L176.90-17.92Q178.43-19.20 179.97-19.20L179.97-19.20L191.42-19.20L191.42-19.20Q192.64-19.20 192.96-19.10L192.96-19.10L192.96-19.10Q193.28-19.01 193.79-18.56L193.79-18.56L193.79-18.56Q194.56-17.92 194.56-17.28L194.56-17.28L194.82-17.28L194.82-24.90L194.82-24.90Q194.82-25.86 194.72-26.14L194.72-26.14L194.72-26.14Q194.62-26.43 194.05-26.88L194.05-26.88L194.05-26.88Q193.47-27.33 193.15-27.42L193.15-27.42L193.15-27.42Q192.83-27.52 191.68-27.52L191.68-27.52L181.31-27.52L181.31-27.52Q180.16-27.52 179.74-27.36L179.74-27.36L179.74-27.36Q179.33-27.20 178.18-26.24L178.18-26.24L174.34-29.44L175.87-30.72L175.87-30.72Q177.02-31.68 177.44-31.84L177.44-31.84L177.44-31.84Q177.86-32 179.01-32L179.01-32L194.05-32L194.05-32Q195.58-32 197.12-30.72L197.12-30.72L198.66-29.44L198.66-29.44Q200.19-28.16 200.19-26.24L200.19-26.24L200.19-7.10L200.19-7.10Q200.19-6.14 200.29-5.86L200.29-5.86L200.29-5.86Q200.38-5.57 200.96-5.12L200.96-5.12L200.96-5.12Q201.54-4.67 201.63-4.38L201.63-4.38L201.63-4.38Q201.73-4.10 201.73-3.14L201.73-3.14L201.73 0L199.49 0L199.49 0Q198.34 0 197.92-0.16L197.92-0.16L197.92-0.16Q197.50-0.32 196.74-0.96L196.74-0.96L196.74-0.96Q195.71-1.79 195.71-2.56ZM179.20-12.10L179.20-12.10L179.20-7.10L179.20-7.10Q179.20-6.14 179.30-5.86L179.30-5.86L179.30-5.86Q179.39-5.57 179.97-5.12L179.97-5.12L179.97-5.12Q180.54-4.67 180.86-4.58L180.86-4.58L180.86-4.58Q181.18-4.48 182.34-4.48L182.34-4.48L190.14-4.48L190.14-4.48Q191.30-4.48 191.71-4.61L191.71-4.61L191.71-4.61Q192.13-4.74 193.28-5.44L193.28-5.44L193.28-5.44Q194.43-6.14 194.62-6.46L194.62-6.46L194.62-6.46Q194.82-6.78 194.82-7.74L194.82-7.74L194.82-12.10L194.82-12.10Q194.82-13.06 194.72-13.34L194.72-13.34L194.72-13.34Q194.62-13.63 194.05-14.08L194.05-14.08L194.05-14.08Q193.47-14.53 193.15-14.62L193.15-14.62L193.15-14.62Q192.83-14.72 191.68-14.72L191.68-14.72L182.34-14.72L182.34-14.72Q181.18-14.72 180.86-14.62L180.86-14.62L180.86-14.62Q180.54-14.53 179.97-14.08L179.97-14.08L179.97-14.08Q179.39-13.63 179.30-13.34L179.30-13.34L179.30-13.34Q179.20-13.06 179.20-12.10ZM209.41-28.86L209.41-32L211.65-32L211.65-32Q212.80-32 213.22-31.84L213.22-31.84L213.22-31.84Q213.63-31.68 214.40-31.04L214.40-31.04L214.40-31.04Q215.42-30.21 215.42-29.44L215.42-29.44L215.68-29.44L215.68-29.44Q215.68-30.21 217.09-31.04L217.09-31.04L217.09-31.04Q218.24-31.74 218.66-31.87L218.66-31.87L218.66-31.87Q219.07-32 220.22-32L220.22-32L226.11-32L226.11-32Q227.65-32 229.18-30.72L229.18-30.72L230.72-29.44L226.88-26.24L226.11-26.88L226.11-26.88Q225.54-27.33 225.22-27.42L225.22-27.42L225.22-27.42Q224.90-27.52 223.74-27.52L223.74-27.52L220.99-27.52L220.99-27.52Q219.84-27.52 219.42-27.39L219.42-27.39L219.42-27.39Q219.01-27.26 217.86-26.56L217.86-26.56L217.86-26.56Q216.70-25.86 216.51-25.54L216.51-25.54L216.51-25.54Q216.32-25.22 216.32-24.26L216.32-24.26L216.32 0L210.94 0L210.94-24.90L210.94-24.90Q210.94-25.86 210.85-26.14L210.85-26.14L210.85-26.14Q210.75-26.43 210.18-26.88L210.18-26.88L210.18-26.88Q209.60-27.33 209.50-27.62L209.50-27.62L209.50-27.62Q209.41-27.90 209.41-28.86L209.41-28.86ZM253.82-27.52L253.82-27.52L244.67-27.52L244.67-27.52Q243.52-27.52 243.20-27.42L243.20-27.42L243.20-27.42Q242.88-27.33 242.30-26.88L242.30-26.88L242.30-26.88Q241.73-26.43 241.63-26.14L241.63-26.14L241.63-26.14Q241.54-25.86 241.54-24.90L241.54-24.90L241.54-7.10L241.54-7.10Q241.54-6.14 241.63-5.86L241.63-5.86L241.63-5.86Q241.73-5.57 242.30-5.12L242.30-5.12L242.30-5.12Q242.88-4.67 243.20-4.58L243.20-4.58L243.20-4.58Q243.52-4.48 244.67-4.48L244.67-4.48L253.76-4.48L253.76-4.48Q254.91-4.48 255.33-4.61L255.33-4.61L255.33-4.61Q255.74-4.74 256.90-5.44L256.90-5.44L256.90-5.44Q258.05-6.14 258.24-6.46L258.24-6.46L258.24-6.46Q258.43-6.78 258.43-7.74L258.43-7.74L258.43-23.68L258.43-23.68Q258.43-24.96 256.90-26.24L256.90-26.24L256.90-26.24Q255.36-27.52 253.82-27.52ZM254.53 0L254.53 0L242.30 0L242.30 0Q240.77 0 239.23-1.28L239.23-1.28L237.70-2.56L237.70-2.56Q236.16-3.84 236.16-5.76L236.16-5.76L236.16-26.24L236.16-26.24Q236.16-28.16 237.70-29.44L237.70-29.44L239.23-30.72L239.23-30.72Q240.77-32 242.30-32L242.30-32L253.57-32L253.57-32Q255.10-32 256.64-30.72L256.64-30.72L256.64-30.72Q258.18-29.18 258.18-28.80L258.18-28.80L258.43-28.80L258.43-47.36L263.81-47.36L263.81-7.10L263.81-7.10Q263.81-6.14 263.90-5.86L263.90-5.86L263.90-5.86Q264-5.57 264.58-5.12L264.58-5.12L264.58-5.12Q265.15-4.67 265.25-4.38L265.25-4.38L265.25-4.38Q265.34-4.10 265.34-3.14L265.34-3.14L265.34 0L263.10 0L263.10 0Q261.95 0 261.54-0.16L261.54-0.16L261.54-0.16Q261.12-0.32 260.35-0.96L260.35-0.96L260.35-0.96Q259.33-1.79 259.33-2.56L259.33-2.56L259.07-2.56L259.07-2.56Q259.07-1.79 257.66-0.96L257.66-0.96L257.66-0.96Q256.51-0.26 256.10-0.13L256.10-0.13L256.10-0.13Q255.68 0 254.53 0ZM282.18-18.56L293.38-18.56L293.38-18.56Q294.91-18.56 296.45-17.28L296.45-17.28L297.98-16L297.98-16Q299.52-14.72 299.52-12.80L299.52-12.80L299.52-5.76L299.52-5.76Q299.52-3.84 297.98-2.56L297.98-2.56L296.45-1.28L296.45-1.28Q294.91 0 293.38 0L293.38 0L279.17 0L279.17 0Q277.63 0 276.10-1.28L276.10-1.28L274.56-2.56L274.56-2.56Q273.02-3.84 273.02-5.76L273.02-5.76L273.02-8.32L278.40-8.32L278.40-7.10L278.40-7.10Q278.40-6.14 278.50-5.86L278.50-5.86L278.50-5.86Q278.59-5.57 279.17-5.12L279.17-5.12L279.17-5.12Q279.74-4.67 280.06-4.58L280.06-4.58L280.06-4.58Q280.38-4.48 281.54-4.48L281.54-4.48L291.01-4.48L291.01-4.48Q292.16-4.48 292.48-4.58L292.48-4.58L292.48-4.58Q292.80-4.67 293.38-5.12L293.38-5.12L293.38-5.12Q293.95-5.57 294.05-5.86L294.05-5.86L294.05-5.86Q294.14-6.14 294.14-7.10L294.14-7.10L294.14-12.29L294.14-12.29Q294.08-12.80 293.38-13.44L293.38-13.44L293.38-13.44Q292.80-13.89 292.48-13.98L292.48-13.98L292.48-13.98Q292.16-14.08 291.01-14.08L291.01-14.08L279.81-14.08L279.81-14.08Q278.27-14.08 276.74-15.36L276.74-15.36L275.20-16.64L275.20-16.64Q273.66-17.92 273.66-19.84L273.66-19.84L273.66-26.24L273.66-26.24Q273.66-28.16 275.20-29.44L275.20-29.44L276.74-30.72L276.74-30.72Q278.27-32 279.81-32L279.81-32L293.38-32L293.38-32Q294.91-32 296.45-30.72L296.45-30.72L297.98-29.44L297.98-29.44Q299.52-28.16 299.52-26.24L299.52-26.24L299.52-23.68L294.14-23.68L294.14-24.90L294.14-24.90Q294.14-25.86 294.05-26.14L294.05-26.14L294.05-26.14Q293.95-26.43 293.38-26.88L293.38-26.88L293.38-26.88Q292.80-27.33 292.48-27.42L292.48-27.42L292.48-27.42Q292.16-27.52 291.01-27.52L291.01-27.52L282.18-27.52L282.18-27.52Q281.02-27.52 280.70-27.42L280.70-27.42L280.70-27.42Q280.38-27.33 279.81-26.88L279.81-26.88L279.81-26.88Q279.23-26.43 279.14-26.14L279.14-26.14L279.14-26.14Q279.04-25.86 279.04-24.90L279.04-24.90L279.04-21.18L279.04-21.18Q279.04-20.22 279.14-19.94L279.14-19.94L279.14-19.94Q279.23-19.65 279.81-19.20L279.81-19.20L279.81-19.20Q280.38-18.75 280.70-18.66L280.70-18.66L280.70-18.66Q281.02-18.56 282.18-18.56L282.18-18.56Z" fill="url(#editing-gradow-gradient)"></path></g></g><style>text {
  font-size: 64px;
  font-family: Arial Black;
  dominant-baseline: central;
  text-anchor: middle;
}</style></svg>